<svg width="174" height="174" viewBox="0 0 174 174" fill="none" xmlns="http://www.w3.org/2000/svg">
<g filter="url(#filter0_d_3221_450)">
<circle cx="87" cy="82" r="62" fill="white"/>
<path d="M87 27C56.6169 27 32 51.6169 32 82C32 112.383 56.6169 137 87 137C117.383 137 142 112.383 142 82C142 51.6169 117.383 27 87 27ZM112.504 87.3226L73.4718 109.722C69.9234 111.718 65.7097 109.278 65.7097 105.065V58.9355C65.7097 54.9435 69.9234 52.504 73.4718 54.2782L112.504 78.0081C116.274 80.2258 116.274 85.3266 112.504 87.3226Z" fill="#777777"/>
</g>
<defs>
<filter id="filter0_d_3221_450" x="0" y="0" width="174" height="174" filterUnits="userSpaceOnUse" color-interpolation-filters="sRGB">
<feFlood flood-opacity="0" result="BackgroundImageFix"/>
<feColorMatrix in="SourceAlpha" type="matrix" values="0 0 0 0 0 0 0 0 0 0 0 0 0 0 0 0 0 0 127 0" result="hardAlpha"/>
<feOffset dy="5"/>
<feGaussianBlur stdDeviation="12.5"/>
<feColorMatrix type="matrix" values="0 0 0 0 0 0 0 0 0 0 0 0 0 0 0 0 0 0 0.15 0"/>
<feBlend mode="normal" in2="BackgroundImageFix" result="effect1_dropShadow_3221_450"/>
<feBlend mode="normal" in="SourceGraphic" in2="effect1_dropShadow_3221_450" result="shape"/>
</filter>
</defs>
</svg>
