<svg width="49" height="36" viewBox="0 0 49 36" fill="none" xmlns="http://www.w3.org/2000/svg">
<path d="M44.1667 0H5.16666C2.63541 0 0.666656 2.0625 0.666656 4.5V31.5C0.666656 34.0312 2.63541 36 5.16666 36H44.1667C46.6042 36 48.6667 34.0312 48.6667 31.5V4.5C48.6667 2.0625 46.6042 0 44.1667 0ZM5.16666 3H44.1667C44.9167 3 45.6667 3.75 45.6667 4.5V8.4375C43.6042 10.125 40.6042 12.5625 31.5104 19.7812C29.9167 21.0938 26.8229 24.0938 24.6667 24C22.4167 24.0938 19.3229 21.0938 17.7292 19.7812C8.63541 12.5625 5.63541 10.125 3.66666 8.4375V4.5C3.66666 3.75 4.32291 3 5.16666 3ZM44.1667 33H5.16666C4.32291 33 3.66666 32.3438 3.66666 31.5V12.2812C5.72916 14.0625 9.10416 16.7812 15.8542 22.125C17.8229 23.7188 21.1979 27.0938 24.6667 27C28.0417 27.0938 31.4167 23.7188 33.3854 22.125C40.1354 16.7812 43.5104 14.0625 45.6667 12.2812V31.5C45.6667 32.3438 44.9167 33 44.1667 33Z" fill="#E27730"/>
</svg>
